<?xml version="1.0" encoding="UTF-8"?>
<svg id="Layer_1" data-name="Layer 1" xmlns="http://www.w3.org/2000/svg" viewBox="0 0 16 16">
  <defs>
    <style>
      .cls-1 {
        fill: #ea0021;
        fill-rule: evenodd;
      }

      .cls-2 {
        fill: #042b65;
      }
    </style>
  </defs>
  <path class="cls-1" d="m10.5,6.11c1.52-.81.09-2.51-.95-3.09.29.06.55.2.77.42.3-.91-.92-1.96-2.39-2.41C2.84-.55-.84,4.03.17,8.92c.15-3.8,1.89-6.13,5-6.77-4.04,1.8-2.58,10.05,4.82,10.14-3.26-.29-6.53-4.72-4.01-7.4,2.07-2.19,4.78.21,4.52,1.21"/>
  <path class="cls-2" d="m15.97,15.11c-1.98-2.16-3.19-5.04-3.19-8.2v-.19c0-.12-.1-.22-.22-.22h-.77c-.12,0-.22.1-.22.22v.19c0,3.16-1.21,6.04-3.19,8.2-.07.07-.01.19.08.19h.88s.07-.02.1-.04c.43-.51.81-1.05,1.15-1.61.51-.15,1.04-.23,1.59-.23s1.08.08,1.59.23c.34.56.72,1.1,1.15,1.61.02.03.06.04.1.04h.88c.1,0,.15-.12.08-.19Zm-3.79-2.46c-.37,0-.74.03-1.1.09.5-.99.86-2.04,1.09-3.13.23,1.09.6,2.14,1.09,3.13-.36-.06-.72-.09-1.09-.09Z"/>
</svg>